<svg xmlns="http://www.w3.org/2000/svg" width="440" height="270" version="1.1">
  <g fill="none" fill-rule="evenodd" stroke="#000" stroke-width="20">
    <rect width="420" height="250" x="10" y="10" rx="100"/>
    <g stroke-linecap="round">
      <path d="M193 84h-53.122c-13.538 0-19.729 1.661-25.563 4.78-5.834 3.12-10.413 7.697-13.533 13.53C97.662 108.14 96 114.33 96 127.863c0 27.67 1.662 33.859 4.782 39.691 3.12 5.832 7.699 10.41 13.533 13.529 5.834 3.119 12.025 4.78 25.563 4.78H193"/>
      <path d="M247 84h53.122c13.538 0 19.729 1.661 25.563 4.78 5.834 3.12 10.413 7.697 13.533 13.53 3.12 5.831 4.782 12.02 4.782 25.554 0 27.67-1.662 33.859-4.782 39.691-3.12 5.832-7.699 10.41-13.533 13.529-5.834 3.119-12.025 4.78-25.563 4.78H247"/>
    </g>
  </g>
</svg>